<svg width="141" height="36" viewBox="0 0 141 36" fill="none" xmlns="http://www.w3.org/2000/svg">
<path fill-rule="evenodd" clip-rule="evenodd" d="M15.039 7.81473C9.08945 3.42355 3.45945 1.72339 1.13587 4.02923C-1.18771 6.33507 0.469263 11.9779 4.81473 17.961C0.423547 23.9105 -1.27661 29.5405 1.02923 31.8641C3.33507 34.1877 8.97793 32.5307 14.9609 28.1852C20.9105 32.5764 26.5405 34.2766 28.8641 31.9708C31.1877 29.6649 29.5307 24.022 25.1852 18.039C29.5764 12.0894 31.2766 6.45942 28.9708 4.13584C26.6649 1.81225 21.022 3.46924 15.039 7.81473Z" fill="#5E96FC"/>
<path d="M53.424 9.248V21.008C53.424 22.64 52.952 23.912 52.008 24.824C51.064 25.72 49.8 26.168 48.216 26.168C46.616 26.168 45.32 25.704 44.328 24.776C43.352 23.848 42.864 22.552 42.864 20.888H46.224C46.24 21.608 46.408 22.168 46.728 22.568C47.064 22.968 47.544 23.168 48.168 23.168C48.776 23.168 49.24 22.976 49.56 22.592C49.88 22.208 50.04 21.68 50.04 21.008V9.248H53.424ZM62.7675 26.216C61.4875 26.216 60.3355 25.936 59.3115 25.376C58.2875 24.8 57.4795 23.992 56.8875 22.952C56.3115 21.912 56.0235 20.712 56.0235 19.352C56.0235 17.992 56.3195 16.792 56.9115 15.752C57.5195 14.712 58.3435 13.912 59.3835 13.352C60.4235 12.776 61.5835 12.488 62.8635 12.488C64.1435 12.488 65.3035 12.776 66.3435 13.352C67.3835 13.912 68.1995 14.712 68.7915 15.752C69.3995 16.792 69.7035 17.992 69.7035 19.352C69.7035 20.712 69.3915 21.912 68.7675 22.952C68.1595 23.992 67.3275 24.8 66.2715 25.376C65.2315 25.936 64.0635 26.216 62.7675 26.216ZM62.7675 23.288C63.3755 23.288 63.9435 23.144 64.4715 22.856C65.0155 22.552 65.4475 22.104 65.7675 21.512C66.0875 20.92 66.2475 20.2 66.2475 19.352C66.2475 18.088 65.9115 17.12 65.2395 16.448C64.5835 15.76 63.7755 15.416 62.8155 15.416C61.8555 15.416 61.0475 15.76 60.3915 16.448C59.7515 17.12 59.4315 18.088 59.4315 19.352C59.4315 20.616 59.7435 21.592 60.3675 22.28C61.0075 22.952 61.8075 23.288 62.7675 23.288ZM75.0482 14.648C75.4802 14.008 76.0722 13.488 76.8242 13.088C77.5922 12.688 78.4642 12.488 79.4402 12.488C80.5762 12.488 81.6002 12.768 82.5122 13.328C83.4402 13.888 84.1682 14.688 84.6962 15.728C85.2402 16.752 85.5122 17.944 85.5122 19.304C85.5122 20.664 85.2402 21.872 84.6962 22.928C84.1682 23.968 83.4402 24.776 82.5122 25.352C81.6002 25.928 80.5762 26.216 79.4402 26.216C78.4482 26.216 77.5762 26.024 76.8242 25.64C76.0882 25.24 75.4962 24.728 75.0482 24.104V26H71.6882V8.24H75.0482V14.648ZM82.0802 19.304C82.0802 18.504 81.9122 17.816 81.5762 17.24C81.2562 16.648 80.8242 16.2 80.2802 15.896C79.7522 15.592 79.1762 15.44 78.5522 15.44C77.9442 15.44 77.3682 15.6 76.8242 15.92C76.2962 16.224 75.8642 16.672 75.5282 17.264C75.2082 17.856 75.0482 18.552 75.0482 19.352C75.0482 20.152 75.2082 20.848 75.5282 21.44C75.8642 22.032 76.2962 22.488 76.8242 22.808C77.3682 23.112 77.9442 23.264 78.5522 23.264C79.1762 23.264 79.7522 23.104 80.2802 22.784C80.8242 22.464 81.2562 22.008 81.5762 21.416C81.9122 20.824 82.0802 20.12 82.0802 19.304ZM93.3778 26.216C92.0978 26.216 90.9458 25.936 89.9218 25.376C88.8978 24.8 88.0898 23.992 87.4978 22.952C86.9218 21.912 86.6338 20.712 86.6338 19.352C86.6338 17.992 86.9298 16.792 87.5218 15.752C88.1298 14.712 88.9538 13.912 89.9938 13.352C91.0338 12.776 92.1938 12.488 93.4738 12.488C94.7538 12.488 95.9138 12.776 96.9538 13.352C97.9938 13.912 98.8098 14.712 99.4018 15.752C100.01 16.792 100.314 17.992 100.314 19.352C100.314 20.712 100.002 21.912 99.3778 22.952C98.7698 23.992 97.9378 24.8 96.8818 25.376C95.8418 25.936 94.6738 26.216 93.3778 26.216ZM93.3778 23.288C93.9858 23.288 94.5538 23.144 95.0818 22.856C95.6258 22.552 96.0578 22.104 96.3778 21.512C96.6978 20.92 96.8578 20.2 96.8578 19.352C96.8578 18.088 96.5218 17.12 95.8498 16.448C95.1938 15.76 94.3858 15.416 93.4258 15.416C92.4658 15.416 91.6578 15.76 91.0018 16.448C90.3618 17.12 90.0418 18.088 90.0418 19.352C90.0418 20.616 90.3538 21.592 90.9778 22.28C91.6178 22.952 92.4178 23.288 93.3778 23.288ZM105.659 14.768C106.091 14.064 106.651 13.512 107.339 13.112C108.043 12.712 108.843 12.512 109.739 12.512V16.04H108.851C107.795 16.04 106.995 16.288 106.451 16.784C105.923 17.28 105.659 18.144 105.659 19.376V26H102.299V12.704H105.659V14.768ZM123.882 19.064C123.882 19.544 123.85 19.976 123.786 20.36H114.066C114.146 21.32 114.482 22.072 115.074 22.616C115.666 23.16 116.394 23.432 117.258 23.432C118.506 23.432 119.394 22.896 119.922 21.824H123.546C123.162 23.104 122.426 24.16 121.338 24.992C120.25 25.808 118.914 26.216 117.33 26.216C116.05 26.216 114.898 25.936 113.874 25.376C112.866 24.8 112.074 23.992 111.498 22.952C110.938 21.912 110.658 20.712 110.658 19.352C110.658 17.976 110.938 16.768 111.498 15.728C112.058 14.688 112.842 13.888 113.85 13.328C114.858 12.768 116.018 12.488 117.33 12.488C118.594 12.488 119.722 12.76 120.714 13.304C121.722 13.848 122.498 14.624 123.042 15.632C123.602 16.624 123.882 17.768 123.882 19.064ZM120.402 18.104C120.386 17.24 120.074 16.552 119.466 16.04C118.858 15.512 118.114 15.248 117.234 15.248C116.402 15.248 115.698 15.504 115.122 16.016C114.562 16.512 114.218 17.208 114.09 18.104H120.402ZM124.99 19.304C124.99 17.96 125.254 16.768 125.782 15.728C126.326 14.688 127.062 13.888 127.99 13.328C128.918 12.768 129.95 12.488 131.086 12.488C131.95 12.488 132.774 12.68 133.558 13.064C134.342 13.432 134.966 13.928 135.43 14.552V8.24H138.838V26H135.43V24.032C135.014 24.688 134.43 25.216 133.678 25.616C132.926 26.016 132.054 26.216 131.062 26.216C129.942 26.216 128.918 25.928 127.99 25.352C127.062 24.776 126.326 23.968 125.782 22.928C125.254 21.872 124.99 20.664 124.99 19.304ZM135.454 19.352C135.454 18.536 135.294 17.84 134.974 17.264C134.654 16.672 134.222 16.224 133.678 15.92C133.134 15.6 132.55 15.44 131.926 15.44C131.302 15.44 130.726 15.592 130.198 15.896C129.67 16.2 129.238 16.648 128.902 17.24C128.582 17.816 128.422 18.504 128.422 19.304C128.422 20.104 128.582 20.808 128.902 21.416C129.238 22.008 129.67 22.464 130.198 22.784C130.742 23.104 131.318 23.264 131.926 23.264C132.55 23.264 133.134 23.112 133.678 22.808C134.222 22.488 134.654 22.04 134.974 21.464C135.294 20.872 135.454 20.168 135.454 19.352Z" fill="#232134"/>
</svg>
